# Blender 4.3.2
# www.blender.org
mtllib terrain_hill_gentle_large.mtl
o terrain_hill_gentle_large
v 0.270679 0.002925 -0.005304
v 0.302153 -0.001158 -0.131921
v 0.249507 0.000893 -0.247015
v 0.124168 -0.006330 -0.305049
v 0.004144 -0.002841 -0.360068
v -0.091857 -0.003074 -0.246950
v -0.189646 -0.001374 -0.177651
v -0.325200 -0.008490 -0.129175
v -0.337366 -0.009189 -0.000638
v -0.326010 -0.009077 0.133954
v -0.222569 -0.006542 0.213019
v -0.104243 -0.002045 0.254191
v 0.008342 0.000638 0.322965
v 0.142412 0.004014 0.344271
v 0.219863 0.001898 0.232353
v 0.240781 -0.001247 0.103554
v 0.248243 0.000081 0.066708
v 0.258254 0.002030 0.031490
v 0.284885 0.001929 -0.045448
v 0.297391 -0.000034 -0.088204
v 0.295367 -0.000558 -0.175150
v 0.277482 0.000780 -0.215089
v 0.212112 -0.001184 -0.268747
v 0.168655 -0.004325 -0.285166
v 0.081588 -0.006042 -0.331750
v 0.041497 -0.004303 -0.355981
v -0.030253 -0.002567 -0.334834
v -0.062085 -0.003005 -0.290643
v -0.120408 -0.002272 -0.214722
v -0.151081 -0.001264 -0.193069
v -0.238189 -0.003265 -0.165411
v -0.288406 -0.006144 -0.151672
v -0.340432 -0.009474 -0.093908
v -0.340384 -0.009442 -0.049056
v -0.337455 -0.009138 0.047651
v -0.336707 -0.009199 0.093507
v -0.300340 -0.008591 0.167055
v -0.263456 -0.007739 0.193193
v -0.181784 -0.005036 0.227215
v -0.142163 -0.003424 0.239137
v -0.068041 -0.001067 0.275168
v -0.031641 -0.000298 0.299690
v 0.053380 0.001906 0.341362
v 0.100133 0.003217 0.350750
v 0.176416 0.003969 0.318170
v 0.202096 0.003188 0.277787
v 0.230071 0.000308 0.187175
v 0.235576 -0.001040 0.143862
vn -0.0131 0.9999 -0.0042
s 0
f 1//1 19//1 20//1 2//1 21//1 22//1 3//1 23//1 24//1 4//1 25//1 26//1 5//1 27//1 28//1 6//1 29//1 30//1 7//1 31//1 32//1 8//1 33//1 34//1 9//1 35//1 36//1 10//1 37//1 38//1 11//1 39//1 40//1 12//1 41//1 42//1 13//1 43//1 44//1 14//1 45//1 46//1 15//1 47//1 48//1 16//1 17//1 18//1
