# Blender 4.3.2
# www.blender.org
mtllib terrain_rocky_ground_large.mtl
o terrain_rocky_ground_large
v 0.323879 -0.000244 0.001101
v 0.230957 -0.000586 -0.096285
v 0.241375 -0.001739 -0.254930
v 0.138458 -0.001957 -0.316321
v 0.009611 -0.000108 -0.271918
v -0.087288 0.001525 -0.205346
v -0.199754 0.002637 -0.195580
v -0.254021 0.001438 -0.100277
v -0.344292 0.001297 0.002122
v -0.269384 0.002411 0.102435
v -0.179201 -0.002106 0.180383
v -0.106112 0.001213 0.248772
v -0.003608 -0.001377 0.214992
v 0.102258 -0.002667 0.222468
v 0.218956 -0.001788 0.220616
v 0.238614 0.000248 0.097091
v 0.270413 0.000293 0.059549
v 0.308288 0.000031 0.028746
v 0.302930 -0.000378 -0.026018
v 0.261566 -0.000437 -0.056442
v 0.227217 -0.000908 -0.148195
v 0.238797 -0.001337 -0.205251
v 0.221445 -0.002020 -0.289685
v 0.183526 -0.002123 -0.309670
v 0.092582 -0.001479 -0.310251
v 0.048683 -0.000798 -0.294235
v -0.023398 0.000487 -0.245985
v -0.053691 0.001010 -0.221257
v -0.126839 0.002050 -0.201647
v -0.167454 0.002484 -0.202875
v -0.219294 0.002407 -0.172441
v -0.233011 0.001928 -0.137721
v -0.288145 0.001094 -0.064961
v -0.324926 0.000998 -0.031495
v -0.335274 0.002005 0.036773
v -0.305357 0.002652 0.071111
v -0.235754 0.000910 0.129439
v -0.205784 -0.001075 0.154158
v -0.155570 -0.001454 0.209285
v -0.132519 0.000138 0.235462
v -0.074280 0.000984 0.244098
v -0.038896 -0.000164 0.228491
v 0.029917 -0.002169 0.210891
v 0.063776 -0.002551 0.214786
v 0.146660 -0.002583 0.230570
v 0.189888 -0.002303 0.233187
v 0.227839 -0.001042 0.187904
v 0.227563 -0.000255 0.142331
vn 0.0036 1.0000 0.0021
s 0
f 1//1 19//1 20//1 2//1 21//1 22//1 3//1 23//1 24//1 4//1 25//1 26//1 5//1 27//1 28//1 6//1 29//1 30//1 7//1 31//1 32//1 8//1 33//1 34//1 9//1 35//1 36//1 10//1 37//1 38//1 11//1 39//1 40//1 12//1 41//1 42//1 13//1 43//1 44//1 14//1 45//1 46//1 15//1 47//1 48//1 16//1 17//1 18//1
