# Blender 4.3.2
# www.blender.org
mtllib terrain_hill_steep_medium.mtl
o terrain_hill_steep_medium
v 0.216248 0.000051 0.000916
v 0.182654 -0.004850 -0.072495
v 0.129632 -0.004524 -0.132523
v 0.081488 -0.008523 -0.203396
v 0.003351 -0.003784 -0.211552
v -0.065315 0.004764 -0.166371
v -0.120343 0.004770 -0.118294
v -0.176123 -0.000962 -0.071692
v -0.186049 -0.009494 0.000172
v -0.181429 -0.008606 0.075925
v -0.137022 0.002502 0.136109
v -0.073083 0.006700 0.171031
v 0.000874 -0.007100 0.169899
v 0.074405 -0.008178 0.177796
v 0.128238 0.003624 0.127711
v 0.191901 0.002591 0.076045
v 0.206330 0.001776 0.053379
v 0.214754 0.001121 0.027581
v 0.210202 -0.001691 -0.025217
v 0.198205 -0.003627 -0.050028
v 0.165002 -0.004918 -0.092269
v 0.146683 -0.004430 -0.111192
v 0.114645 -0.005761 -0.157619
v 0.099803 -0.007510 -0.183261
v 0.057800 -0.008081 -0.214351
v 0.030579 -0.006358 -0.216634
v -0.021818 -0.000664 -0.199866
v -0.044685 0.002464 -0.183766
v -0.083861 0.005751 -0.149462
v -0.101540 0.005621 -0.133403
v -0.140992 0.003392 -0.103989
v -0.161087 0.001508 -0.089203
v -0.183640 -0.004001 -0.050202
v -0.185664 -0.007122 -0.025661
v -0.186641 -0.010582 0.026225
v -0.186121 -0.010312 0.051783
v -0.170794 -0.005452 0.098038
v -0.155310 -0.001436 0.118106
v -0.117015 0.005684 0.151726
v -0.095657 0.007442 0.163999
v -0.049337 0.002966 0.172028
v -0.024611 -0.002418 0.169940
v 0.026800 -0.009672 0.174219
v 0.051987 -0.010012 0.179237
v 0.093108 -0.004329 0.166080
v 0.109931 0.000289 0.147301
v 0.149639 0.004561 0.110561
v 0.172162 0.003760 0.094481
vn -0.0005 1.0000 -0.0042
s 0
f 1//1 19//1 20//1 2//1 21//1 22//1 3//1 23//1 24//1 4//1 25//1 26//1 5//1 27//1 28//1 6//1 29//1 30//1 7//1 31//1 32//1 8//1 33//1 34//1 9//1 35//1 36//1 10//1 37//1 38//1 11//1 39//1 40//1 12//1 41//1 42//1 13//1 43//1 44//1 14//1 45//1 46//1 15//1 47//1 48//1 16//1 17//1 18//1
