# Blender 4.3.2
# www.blender.org
mtllib terrain_ploughed_field_medium.mtl
o terrain_ploughed_field_medium
v 0.218582 0.000805 0.001451
v 0.184365 0.000817 -0.073946
v 0.133991 -0.000617 -0.134120
v 0.074346 -0.001105 -0.179801
v -0.000513 -0.000322 -0.192416
v -0.077460 0.000992 -0.186106
v -0.134363 0.001037 -0.137508
v -0.165055 -0.000015 -0.067674
v -0.201450 0.000128 0.002984
v -0.196759 -0.001057 0.080812
v -0.141779 0.000012 0.140938
v -0.078197 0.001217 0.184647
v -0.001896 -0.000272 0.175696
v 0.067682 -0.000710 0.162332
v 0.130539 -0.000345 0.126893
v 0.198473 -0.001115 0.079026
v 0.211942 -0.000646 0.055574
v 0.218691 0.000137 0.028860
v 0.211496 0.001112 -0.025131
v 0.199212 0.001084 -0.050408
v 0.168379 0.000372 -0.095468
v 0.151587 -0.000154 -0.115338
v 0.115492 -0.000932 -0.151891
v 0.095804 -0.001093 -0.167729
v 0.050780 -0.000966 -0.187065
v 0.025570 -0.000698 -0.190627
v -0.026932 0.000139 -0.193214
v -0.052957 0.000615 -0.191916
v -0.099605 0.001197 -0.174338
v -0.118873 0.001216 -0.157576
v -0.145725 0.000666 -0.115115
v -0.154873 0.000239 -0.091406
v -0.177802 0.000011 -0.044537
v -0.191205 0.000160 -0.021403
v -0.206091 -0.000235 0.029160
v -0.204696 -0.000748 0.055877
v -0.182036 -0.000966 0.102683
v -0.162618 -0.000552 0.122224
v -0.121220 0.000605 0.159234
v -0.100492 0.001082 0.175104
v -0.053622 0.000897 0.185803
v -0.027642 0.000295 0.181223
v 0.022639 -0.000623 0.171690
v 0.045837 -0.000756 0.168133
v 0.088289 -0.000525 0.152797
v 0.108672 -0.000332 0.140396
v 0.154524 -0.000658 0.113028
v 0.178490 -0.001050 0.097793
vn 0.0008 1.0000 0.0010
s 0
f 1//1 19//1 20//1 2//1 21//1 22//1 3//1 23//1 24//1 4//1 25//1 26//1 5//1 27//1 28//1 6//1 29//1 30//1 7//1 31//1 32//1 8//1 33//1 34//1 9//1 35//1 36//1 10//1 37//1 38//1 11//1 39//1 40//1 12//1 41//1 42//1 13//1 43//1 44//1 14//1 45//1 46//1 15//1 47//1 48//1 16//1 17//1 18//1
