# Blender 4.3.2
# www.blender.org
mtllib terrain_enclosure_medium.mtl
o terrain_enclosure_medium
v 0.214006 0.002021 0.000440
v 0.191209 0.000264 -0.079136
v 0.151975 -0.001166 -0.154645
v 0.087446 0.001682 -0.206249
v 0.002204 0.000479 -0.194649
v -0.079293 -0.001957 -0.184380
v -0.155344 -0.001446 -0.155618
v -0.181944 0.000476 -0.078439
v -0.189475 0.001919 0.001130
v -0.193782 -0.000031 0.083248
v -0.158046 -0.000658 0.157688
v -0.082134 -0.000006 0.195221
v 0.000547 -0.001446 0.210466
v 0.081344 -0.001739 0.197834
v 0.144097 -0.001471 0.144766
v 0.194074 0.000650 0.079263
v 0.205137 0.001357 0.054084
v 0.212159 0.001869 0.027459
v 0.210023 0.001720 -0.026375
v 0.201652 0.001073 -0.052894
v 0.179823 -0.000565 -0.105046
v 0.167133 -0.001172 -0.130374
v 0.133565 -0.000366 -0.177100
v 0.112007 0.000825 -0.195595
v 0.060033 0.001798 -0.207050
v 0.030983 0.001298 -0.201264
v -0.025303 -0.000467 -0.190317
v -0.052069 -0.001363 -0.187595
v -0.107272 -0.002102 -0.179141
v -0.133918 -0.001880 -0.170372
v -0.169317 -0.000884 -0.133590
v -0.177282 -0.000234 -0.106556
v -0.184856 0.001199 -0.051380
v -0.187000 0.001773 -0.025189
v -0.192631 0.001494 0.028120
v -0.194994 0.000714 0.055629
v -0.187202 -0.000512 0.110491
v -0.175257 -0.000713 0.136060
v -0.135632 -0.000382 0.174036
v -0.109557 -0.000065 0.186009
v -0.054628 -0.000353 0.202440
v -0.027150 -0.000941 0.207672
v 0.028465 -0.001691 0.210294
v 0.055854 -0.001739 0.206516
v 0.104145 -0.001759 0.183518
v 0.124754 -0.001724 0.165030
v 0.162533 -0.000914 0.123954
v 0.179569 -0.000148 0.102401
vn 0.0002 1.0000 0.0019
s 0
f 1//1 19//1 20//1 2//1 21//1 22//1 3//1 23//1 24//1 4//1 25//1 26//1 5//1 27//1 28//1 6//1 29//1 30//1 7//1 31//1 32//1 8//1 33//1 34//1 9//1 35//1 36//1 10//1 37//1 38//1 11//1 39//1 40//1 12//1 41//1 42//1 13//1 43//1 44//1 14//1 45//1 46//1 15//1 47//1 48//1 16//1 17//1 18//1
