# Blender 4.3.2
# www.blender.org
mtllib terrain_ploughed_field_small.mtl
o terrain_ploughed_field_small
v 0.122743 0.000503 0.000249
v 0.119475 0.000423 -0.050696
v 0.095288 0.000543 -0.095067
v 0.050008 0.001152 -0.116059
v -0.000301 -0.000215 -0.114397
v -0.050989 0.000093 -0.118911
v -0.093377 0.000814 -0.093996
v -0.118503 -0.000568 -0.049063
v -0.132105 0.000440 0.000177
v -0.119751 0.000428 0.049209
v -0.089230 -0.000351 0.087071
v -0.042490 0.000769 0.102308
v 0.000533 -0.000588 0.121074
v 0.043883 0.000847 0.107021
v 0.086448 0.000557 0.084526
v 0.120194 0.000432 0.049865
v 0.123583 0.000462 0.034432
v 0.123572 0.000491 0.017574
v 0.122393 0.000492 -0.016990
v 0.121851 0.000462 -0.033999
v 0.114225 0.000388 -0.066901
v 0.106124 0.000403 -0.082040
v 0.081776 0.000830 -0.105225
v 0.066325 0.001120 -0.112340
v 0.033414 0.000797 -0.116328
v 0.016653 0.000230 -0.114839
v -0.017423 -0.000349 -0.116327
v -0.034465 -0.000212 -0.118946
v -0.066636 0.000484 -0.114266
v -0.081002 0.000806 -0.105554
v -0.103346 0.000394 -0.080262
v -0.111431 -0.000213 -0.065022
v -0.124869 -0.000438 -0.032814
v -0.129869 0.000011 -0.016391
v -0.130731 0.000652 0.016830
v -0.126296 0.000639 0.033318
v -0.111505 0.000058 0.064068
v -0.101482 -0.000298 0.077139
v -0.074559 0.000025 0.093246
v -0.058439 0.000564 0.097343
v -0.027594 0.000397 0.109494
v -0.013485 -0.000251 0.117004
v 0.014840 -0.000312 0.119634
v 0.029366 0.000333 0.114048
v 0.058251 0.000959 0.099980
v 0.072445 0.000778 0.092754
v 0.100008 0.000438 0.074742
v 0.111959 0.000414 0.063263
vn -0.0015 1.0000 0.0004
s 0
f 1//1 19//1 20//1 2//1 21//1 22//1 3//1 23//1 24//1 4//1 25//1 26//1 5//1 27//1 28//1 6//1 29//1 30//1 7//1 31//1 32//1 8//1 33//1 34//1 9//1 35//1 36//1 10//1 37//1 38//1 11//1 39//1 40//1 12//1 41//1 42//1 13//1 43//1 44//1 14//1 45//1 46//1 15//1 47//1 48//1 16//1 17//1 18//1
