# Blender 4.3.2
# www.blender.org
mtllib terrain_bua_small.mtl
o terrain_bua_small
v 0.119808 0.000663 0.000488
v 0.105470 -0.001723 -0.044016
v 0.087970 -0.001305 -0.090252
v 0.051117 0.001147 -0.125358
v 0.000844 0.000507 -0.136458
v -0.045556 0.000274 -0.114547
v -0.078417 -0.001044 -0.079842
v -0.102626 -0.002377 -0.041122
v -0.125228 -0.001566 0.000423
v -0.107349 -0.001542 0.043216
v -0.080447 -0.002267 0.081242
v -0.045687 -0.000802 0.112548
v 0.000630 0.001556 0.127106
v 0.048895 0.000975 0.119675
v 0.083730 0.000203 0.084986
v 0.109481 0.001616 0.044988
v 0.115387 0.001639 0.030492
v 0.119172 0.001292 0.015489
v 0.116774 -0.000180 -0.014259
v 0.111299 -0.001066 -0.028950
v 0.100308 -0.001979 -0.059631
v 0.095044 -0.001834 -0.075330
v 0.078057 -0.000429 -0.103797
v 0.065580 0.000533 -0.115662
v 0.035020 0.001186 -0.132400
v 0.017949 0.000845 -0.136383
v -0.015694 0.000376 -0.132112
v -0.031321 0.000367 -0.124303
v -0.058069 -0.000021 -0.103668
v -0.068971 -0.000486 -0.092017
v -0.086568 -0.001633 -0.067269
v -0.094213 -0.002139 -0.054354
v -0.112188 -0.002254 -0.027572
v -0.120937 -0.001902 -0.013724
v -0.123052 -0.001389 0.014830
v -0.116058 -0.001384 0.029241
v -0.098602 -0.001842 0.056492
v -0.089827 -0.002155 0.069125
v -0.070073 -0.002052 0.092815
v -0.058562 -0.001540 0.103486
v -0.031302 0.000098 0.119506
v -0.015710 0.000981 0.124367
v 0.017362 0.001658 0.127524
v 0.033812 0.001395 0.125299
v 0.061977 0.000535 0.110242
v 0.073382 0.000212 0.098087
v 0.093297 0.000601 0.071882
v 0.101994 0.001197 0.058704
vn -0.0079 1.0000 -0.0018
s 0
f 1//1 19//1 20//1 2//1 21//1 22//1 3//1 23//1 24//1 4//1 25//1 26//1 5//1 27//1 28//1 6//1 29//1 30//1 7//1 31//1 32//1 8//1 33//1 34//1 9//1 35//1 36//1 10//1 37//1 38//1 11//1 39//1 40//1 12//1 41//1 42//1 13//1 43//1 44//1 14//1 45//1 46//1 15//1 47//1 48//1 16//1 17//1 18//1
