# Blender 4.3.2
# www.blender.org
mtllib terrain_hill_gentle_medium.mtl
o terrain_hill_gentle_medium
v 0.205858 0.003767 0.001397
v 0.188822 -0.003382 -0.078229
v 0.145052 -0.004773 -0.147531
v 0.085941 -0.001549 -0.206625
v 0.003151 0.002202 -0.199750
v -0.074223 0.002500 -0.175300
v -0.154529 0.005097 -0.150688
v -0.209247 -0.001050 -0.086173
v -0.226931 -0.000610 -0.000313
v -0.206848 -0.007481 0.085722
v -0.158761 -0.005050 0.156650
v -0.079155 0.003740 0.180702
v 0.001156 0.002459 0.176476
v 0.083868 0.006032 0.192609
v 0.159215 -0.000576 0.158184
v 0.206361 0.005196 0.087075
v 0.210206 0.005986 0.059097
v 0.209066 0.005383 0.030148
v 0.202006 0.001397 -0.026426
v 0.196894 -0.001235 -0.053069
v 0.176816 -0.004610 -0.101793
v 0.161723 -0.005001 -0.124486
v 0.127448 -0.004039 -0.171102
v 0.108254 -0.002920 -0.192479
v 0.059764 -0.000041 -0.210704
v 0.031261 0.001350 -0.207006
v -0.023140 0.002331 -0.191355
v -0.048363 0.002167 -0.182876
v -0.101500 0.003669 -0.168878
v -0.129030 0.004977 -0.161789
v -0.176534 0.003387 -0.133619
v -0.194845 0.000760 -0.111512
v -0.219408 -0.001177 -0.058618
v -0.225375 -0.000464 -0.029677
v -0.223843 -0.002478 0.028893
v -0.216832 -0.005292 0.057675
v -0.194190 -0.008120 0.112568
v -0.178504 -0.007236 0.136965
v -0.134444 -0.001794 0.170152
v -0.107066 0.001629 0.177923
v -0.052075 0.003807 0.179194
v -0.025584 0.002778 0.176252
v 0.028578 0.003725 0.182009
v 0.056368 0.005580 0.189516
v 0.110578 0.004118 0.187576
v 0.135982 0.001103 0.175357
v 0.179468 0.000361 0.137213
v 0.195781 0.002943 0.113265
vn -0.0055 1.0000 -0.0014
s 0
f 1//1 19//1 20//1 2//1 21//1 22//1 3//1 23//1 24//1 4//1 25//1 26//1 5//1 27//1 28//1 6//1 29//1 30//1 7//1 31//1 32//1 8//1 33//1 34//1 9//1 35//1 36//1 10//1 37//1 38//1 11//1 39//1 40//1 12//1 41//1 42//1 13//1 43//1 44//1 14//1 45//1 46//1 15//1 47//1 48//1 16//1 17//1 18//1
